<svg xmlns="http://www.w3.org/2000/svg" width="1400" height="300" viewBox="0 0 1400 300"><defs><linearGradient id="b" x1="0" x2="1"><stop stop-color="#07101f"/><stop offset="1" stop-color="#0b1730"/></linearGradient><linearGradient id="a" x1="0" x2="1"><stop stop-color="#38bdf8"/><stop offset="1" stop-color="#6366f1"/></linearGradient></defs><rect width="1400" height="300" rx="28" fill="url(#b)" stroke="#233a60"/><g font-family="Inter,-apple-system,BlinkMacSystemFont,'Segoe UI',sans-serif"><text x="60" y="52" fill="#7f9abd" font-size="13" font-weight="700" letter-spacing="3">AI ENGINEERING JOURNEY</text><text x="60" y="88" fill="#f8fafc" font-size="31" font-weight="750">From fundamentals to production AI.</text><g transform="translate(60 125)"><path d="M55 35H1260" stroke="#28446d" stroke-width="3"/><path d="M55 35H1260" stroke="url(#a)" stroke-width="3" stroke-dasharray="8 12"/><g fill="#0b1b35" stroke="#3b82f6" stroke-width="2"><circle cx="55" cy="35" r="14"/><circle cx="255" cy="35" r="14"/><circle cx="455" cy="35" r="14"/><circle cx="655" cy="35" r="14"/><circle cx="855" cy="35" r="14"/><circle cx="1055" cy="35" r="14"/><circle cx="1260" cy="35" r="14"/></g><g fill="#f8fafc" font-size="15" font-weight="700" text-anchor="middle"><text x="55" y="76">FOUNDATIONS</text><text x="255" y="76">MACHINE LEARNING</text><text x="455" y="76">DEEP LEARNING</text><text x="655" y="76">LLMs</text><text x="855" y="76">RAG</text><text x="1055" y="76">AGENTS</text><text x="1260" y="76">PRODUCTION</text></g><g fill="#8fa4bf" font-size="12" text-anchor="middle"><text x="55" y="99">Python · Math</text><text x="255" y="99">Models · Metrics</text><text x="455" y="99">Neural Networks</text><text x="655" y="99">LLM Systems</text><text x="855" y="99">Retrieval · Evals</text><text x="1055" y="99">LangGraph · MCP</text><text x="1260" y="99">Reliability · Scale</text></g></g><text x="700" y="263" text-anchor="middle" fill="#7086a4" font-size="13" font-weight="600">LEARNING BY BUILDING REAL SYSTEMS</text></g></svg>