<svg xmlns="http://www.w3.org/2000/svg" width="1600" height="620" viewBox="0 0 1600 620"><defs><linearGradient id="bg" x1="0" y1="0" x2="1" y2="1"><stop stop-color="#03050b"/><stop offset=".48" stop-color="#071126"/><stop offset="1" stop-color="#0d1530"/></linearGradient><linearGradient id="line" x1="0" x2="1"><stop stop-color="#9ad8ff"/><stop offset=".5" stop-color="#4f8cff"/><stop offset="1" stop-color="#b8a0ff"/></linearGradient><radialGradient id="orb"><stop stop-color="#d9f1ff"/><stop offset=".28" stop-color="#7db9ff"/><stop offset=".65" stop-color="#4b62ff"/><stop offset="1" stop-color="#111a4a"/></radialGradient><filter id="blur"><feGaussianBlur stdDeviation="28"/></filter><filter id="glow"><feGaussianBlur stdDeviation="7" result="b"/><feMerge><feMergeNode in="b"/><feMergeNode in="SourceGraphic"/></feMerge></filter><pattern id="grid" width="42" height="42" patternUnits="userSpaceOnUse"><path d="M42 0H0V42" fill="none" stroke="#8fb3ff" stroke-opacity=".045"/></pattern></defs><rect width="1600" height="620" rx="42" fill="url(#bg)"/><rect width="1600" height="620" rx="42" fill="url(#grid)"/><circle cx="1230" cy="270" r="190" fill="#3d6dff" opacity=".12" filter="url(#blur)"/><circle cx="1380" cy="470" r="130" fill="#8b5cf6" opacity=".09" filter="url(#blur)"/><g opacity=".55" fill="none" stroke="url(#line)" stroke-width="2"><ellipse cx="1215" cy="315" rx="300" ry="120"/><ellipse cx="1215" cy="315" rx="230" ry="88"/><path d="M965 315h500M1215 185v260"/></g><g opacity=".9"><circle cx="1215" cy="315" r="72" fill="url(#orb)" filter="url(#glow)"/><circle cx="1215" cy="315" r="42" fill="#0d1738"/><path d="M1190 315h50M1215 290v50" stroke="#d6e8ff" stroke-width="3" opacity=".7"/><circle cx="1030" cy="205" r="7" fill="#9bd7ff"/><circle cx="1410" cy="230" r="5" fill="#b9a7ff"/><circle cx="1350" cy="430" r="6" fill="#8ec5ff"/></g><g font-family="-apple-system,BlinkMacSystemFont,'SF Pro Display','Segoe UI',sans-serif"><text x="90" y="112" fill="#9fb0c7" font-size="16" letter-spacing="5">AI / ML ENGINEER · GENAI · SYSTEMS</text><text x="90" y="205" fill="#ffffff" font-size="64" font-weight="750" letter-spacing="-1.5">ABHISHEK KUMAR YADAV</text><text x="94" y="255" fill="#d7dfed" font-size="24">Building intelligent products from models to reliable AI systems.</text><text x="94" y="292" fill="#8291a7" font-size="17">RAG · Agentic AI · Recommendation Systems · Predictive Analytics</text><g><rect x="94" y="338" width="156" height="48" rx="24" fill="#ffffff"/><text x="172" y="369" text-anchor="middle" fill="#0a1020" font-size="15" font-weight="700">Explore my work →</text><rect x="266" y="338" width="154" height="48" rx="24" fill="#101a35" stroke="#3a4a6d"/><text x="343" y="369" text-anchor="middle" fill="#edf3ff" font-size="15" font-weight="600">Let's connect</text></g><g fill="#8798b1" font-size="12" letter-spacing="2"><text x="96" y="456">MODEL QUALITY</text><text x="310" y="456">RETRIEVAL</text><text x="505" y="456">RELIABILITY</text><text x="740" y="456">DEPLOYMENT</text></g><g fill="#ffffff" font-size="20" font-weight="650"><text x="96" y="486">ML + LLMs</text><text x="310" y="486">RAG + VECTOR SEARCH</text><text x="505" y="486">EVALS + GUARDRAILS</text><text x="740" y="486">FASTAPI + DATA</text></g><text x="96" y="558" fill="#5e6d83" font-size="13">Building • Learning • Shipping</text><text x="1510" y="558" text-anchor="end" fill="#5e6d83" font-size="13">01 / 07</text></g><g opacity=".9"><animateTransform attributeName="transform" type="rotate" from="0 1215 315" to="360 1215 315" dur="26s" repeatCount="indefinite"/><circle cx="1470" cy="315" r="5" fill="#a9cfff"/></g></svg>