<svg xmlns="http://www.w3.org/2000/svg" width="1200" height="360" viewBox="0 0 1200 360">
<defs>
 <linearGradient id="bg" x1="0" y1="0" x2="1" y2="1"><stop stop-color="#050816"/><stop offset=".55" stop-color="#0b1230"/><stop offset="1" stop-color="#111b45"/></linearGradient>
 <linearGradient id="glow" x1="0" x2="1"><stop stop-color="#38bdf8"/><stop offset=".5" stop-color="#818cf8"/><stop offset="1" stop-color="#c084fc"/></linearGradient>
 <filter id="blur"><feGaussianBlur stdDeviation="22"/></filter>
 <pattern id="grid" width="36" height="36" patternUnits="userSpaceOnUse"><path d="M36 0H0V36" fill="none" stroke="#64748b" stroke-opacity=".11"/></pattern>
</defs>
<rect width="1200" height="360" rx="26" fill="url(#bg)"/>
<rect x="0" y="0" width="1200" height="360" rx="26" fill="url(#grid)"/>
<circle cx="920" cy="120" r="120" fill="#2563eb" opacity=".18" filter="url(#blur)"/>
<circle cx="1030" cy="250" r="100" fill="#a855f7" opacity=".14" filter="url(#blur)"/>
<g opacity=".75" fill="none" stroke="url(#glow)" stroke-width="2">
 <path d="M760 75h110l40 40h95"/><path d="M805 175h75l45-55h100"/><path d="M740 275h150l42-52h120"/>
</g>
<g fill="#c4b5fd"><circle cx="870" cy="75" r="4"/><circle cx="905" cy="115" r="4"/><circle cx="880" cy="175" r="4"/><circle cx="950" cy="120" r="4"/><circle cx="932" cy="223" r="4"/><circle cx="1052" cy="223" r="4"/></g>
<g font-family="Inter,Segoe UI,Arial,sans-serif">
 <text x="74" y="86" fill="#94a3b8" font-size="15" letter-spacing="4">AI / ML ENGINEER · GENAI · SYSTEMS</text>
 <text x="74" y="148" fill="white" font-size="50" font-weight="800">ABHISHEK KUMAR YADAV</text>
 <text x="76" y="190" fill="#cbd5e1" font-size="20">I build intelligent systems from model → retrieval → agents → API → production.</text>
 <rect x="76" y="228" width="118" height="36" rx="18" fill="#111827" stroke="#334155"/><text x="135" y="252" text-anchor="middle" fill="#e2e8f0" font-size="14">RAG</text>
 <rect x="204" y="228" width="132" height="36" rx="18" fill="#111827" stroke="#334155"/><text x="270" y="252" text-anchor="middle" fill="#e2e8f0" font-size="14">LANGGRAPH</text>
 <rect x="346" y="228" width="118" height="36" rx="18" fill="#111827" stroke="#334155"/><text x="405" y="252" text-anchor="middle" fill="#e2e8f0" font-size="14">FASTAPI</text>
 <rect x="474" y="228" width="132" height="36" rx="18" fill="#111827" stroke="#334155"/><text x="540" y="252" text-anchor="middle" fill="#e2e8f0" font-size="14">POSTGRESQL</text>
 <text x="77" y="315" fill="#64748b" font-size="13">BUILDING • LEARNING • SHIPPING</text>
</g>
</svg>