<svg xmlns="http://www.w3.org/2000/svg" width="1200" height="360" viewBox="0 0 1200 360">
<defs>
 <linearGradient id="bg" x1="0" y1="0" x2="1" y2="1"><stop stop-color="#050816"/><stop offset=".55" stop-color="#0b1230"/><stop offset="1" stop-color="#111b45"/></linearGradient>
 <linearGradient id="glow" x1="0" x2="1"><stop stop-color="#38bdf8"/><stop offset=".5" stop-color="#818cf8"/><stop offset="1" stop-color="#c084fc"/></linearGradient>
 <filter id="blur"><feGaussianBlur stdDeviation="22"/></filter>
 <pattern id="grid" width="36" height="36" patternUnits="userSpaceOnUse"><path d="M36 0H0V36" fill="none" stroke="#64748b" stroke-opacity=".10"/></pattern>
</defs>
<rect width="1200" height="360" rx="26" fill="url(#bg)"/><rect width="1200" height="360" rx="26" fill="url(#grid)"/>
<circle cx="920" cy="120" r="120" fill="#2563eb" opacity=".18" filter="url(#blur)"/><circle cx="1030" cy="250" r="100" fill="#a855f7" opacity=".14" filter="url(#blur)"/>
<g opacity=".75" fill="none" stroke="url(#glow)" stroke-width="2"><path d="M760 75h110l40 40h95"/><path d="M805 175h75l45-55h100"/><path d="M740 275h150l42-52h120"/></g>
<g fill="#c4b5fd"><circle cx="870" cy="75" r="4"/><circle cx="905" cy="115" r="4"/><circle cx="880" cy="175" r="4"/><circle cx="950" cy="120" r="4"/><circle cx="932" cy="223" r="4"/><circle cx="1052" cy="223" r="4"/></g>
<g font-family="Inter,-apple-system,BlinkMacSystemFont,'Segoe UI',sans-serif">
 <text x="74" y="82" fill="#9fb0c7" font-size="17" font-weight="600" letter-spacing="4">AI / ML ENGINEER · GENAI · SYSTEMS</text>
 <text x="74" y="148" fill="#ffffff" font-size="56" font-weight="800" letter-spacing="-1.8">ABHISHEK KUMAR YADAV</text>
 <text x="76" y="191" fill="#d7dfed" font-size="22" font-weight="500">Building intelligent systems from model → retrieval → agents → production.</text>
 <g><rect x="76" y="226" width="126" height="40" rx="20" fill="#111827" stroke="#3a4a6d"/><text x="139" y="252" text-anchor="middle" fill="#eef5ff" font-size="15" font-weight="700">RAG</text>
 <rect x="212" y="226" width="142" height="40" rx="20" fill="#111827" stroke="#3a4a6d"/><text x="283" y="252" text-anchor="middle" fill="#eef5ff" font-size="15" font-weight="700">LANGGRAPH</text>
 <rect x="364" y="226" width="126" height="40" rx="20" fill="#111827" stroke="#3a4a6d"/><text x="427" y="252" text-anchor="middle" fill="#eef5ff" font-size="15" font-weight="700">FASTAPI</text>
 <rect x="500" y="226" width="148" height="40" rx="20" fill="#111827" stroke="#3a4a6d"/><text x="574" y="252" text-anchor="middle" fill="#eef5ff" font-size="15" font-weight="700">POSTGRESQL</text></g>
 <text x="77" y="315" fill="#71829a" font-size="14" font-weight="600" letter-spacing="1.8">BUILDING · LEARNING · SHIPPING</text>
</g>
</svg>