<svg xmlns="http://www.w3.org/2000/svg" width="1200" height="360" viewBox="0 0 1200 360"><defs><linearGradient id="bg" x1="0" y1="0" x2="1" y2="1"><stop stop-color="#07120d"/><stop offset="0.55" stop-color="#0a1f17"/><stop offset="1" stop-color="#102a1e"/></linearGradient><linearGradient id="mint" x1="0" x2="1"><stop stop-color="#34d399"/><stop offset="1" stop-color="#22c55e"/></linearGradient><filter id="blur"><feGaussianBlur stdDeviation="26"/></filter></defs><rect width="1200" height="360" rx="28" fill="url(#bg)"/><circle cx="940" cy="135" r="125" fill="#22c55e" opacity=".13" filter="url(#blur)"/><circle cx="1060" cy="280" r="100" fill="#14b8a6" opacity=".12" filter="url(#blur)"/><g font-family="Inter,Segoe UI,Arial,sans-serif"><text x="62" y="58" fill="#86efac" font-size="14" letter-spacing="4">RECOMMENDER SYSTEM · END-TO-END ML</text><text x="62" y="108" fill="#fff" font-size="44" font-weight="800">MOODIFY</text><text x="62" y="143" fill="#d1fae5" font-size="19">Hybrid music recommendations engineered from retrieval → ranking → evaluation.</text><g fill="#0b2118" stroke="#24543f" stroke-width="1.4"><rect x="62" y="188" width="138" height="48" rx="20"/><rect x="214" y="188" width="150" height="48" rx="20"/><rect x="378" y="188" width="132" height="48" rx="20"/><rect x="524" y="188" width="134" height="48" rx="20"/></g><g fill="#bbf7d0" font-size="13" font-weight="700"><text x="131" y="218" text-anchor="middle">FAISS</text><text x="289" y="218" text-anchor="middle">TWO-TOWER</text><text x="444" y="218" text-anchor="middle">MLFLOW</text><text x="591" y="218" text-anchor="middle">FASTAPI</text></g><text x="62" y="278" fill="#64748b" font-size="12">CUSTOM RETRIEVAL</text><text x="62" y="302" fill="#a7f3d0" font-size="14">TF-IDF + fuzzy search + vector retrieval + diversity reranking</text><g fill="none" stroke="url(#mint)" stroke-width="3" stroke-linecap="round"><path d="M790 70 C850 35 950 70 1005 112 S1085 182 1125 156"/><path d="M790 125 C870 165 925 102 985 142 S1075 245 1140 226"/><path d="M790 220 C865 185 915 252 990 220 S1085 168 1140 196"/><path d="M790 275 C875 325 930 266 1000 292 S1090 310 1140 280"/></g><g fill="#34d399"><circle cx="790" cy="70" r="5"/><circle cx="1005" cy="112" r="5"/><circle cx="1140" cy="226" r="5"/><circle cx="990" cy="220" r="5"/><circle cx="1000" cy="292" r="5"/></g><text x="790" y="330" fill="#64748b" font-size="11">LIVE DEMO · EXPLAINABLE RECOMMENDATIONS · OFFLINE EVALUATION</text></g></svg>