<svg xmlns="http://www.w3.org/2000/svg" width="1200" height="360" viewBox="0 0 1200 360"><defs><linearGradient id="b" x1="0" y1="0" x2="1" y2="1"><stop stop-color="#050816"/><stop offset="1" stop-color="#101a3a"/></linearGradient><linearGradient id="c" x1="0" x2="1"><stop stop-color="#22d3ee"/><stop offset="1" stop-color="#6366f1"/></linearGradient><linearGradient id="v" x1="0" x2="1"><stop stop-color="#818cf8"/><stop offset="1" stop-color="#c084fc"/></linearGradient><filter id="s"><feGaussianBlur stdDeviation="8" result="x"/><feMerge><feMergeNode in="x"/><feMergeNode in="SourceGraphic"/></feMerge></filter></defs><rect width="1200" height="360" rx="30" fill="url(#b)"/><g font-family="Inter,Segoe UI,Arial,sans-serif"><text x="52" y="48" fill="#64748b" font-size="13" letter-spacing="4">THE 10-SECOND VIEW · WHAT I BUILD</text><text x="52" y="82" fill="white" font-size="28" font-weight="800">Four layers. One direction: production AI.</text><g fill="#0b1430" stroke="#26375f" stroke-width="1.5"><rect x="52" y="120" width="250" height="170" rx="22"/><rect x="324" y="120" width="250" height="170" rx="22"/><rect x="596" y="120" width="250" height="170" rx="22"/><rect x="868" y="120" width="280" height="170" rx="22"/></g><g fill="none" stroke="url(#c)" stroke-width="2.5" opacity=".9"><path d="M302 205h22M574 205h22M846 205h22"/></g><g fill="#22d3ee"><circle cx="82" cy="153" r="5"/><circle cx="354" cy="153" r="5"/><circle cx="626" cy="153" r="5"/><circle cx="898" cy="153" r="5"/></g><g fill="white" font-size="18" font-weight="800"><text x="100" y="159">01 · INTELLIGENCE</text><text x="372" y="159">02 · RETRIEVAL</text><text x="644" y="159">03 · AGENTS</text><text x="916" y="159">04 · ENGINEERING</text></g><g fill="#a5b4fc" font-size="13"><text x="78" y="192">Machine Learning</text><text x="78" y="218">Deep Learning</text><text x="78" y="244">NLP · Statistics</text><text x="350" y="192">RAG</text><text x="350" y="218">Embeddings · Vector Search</text><text x="350" y="244">Multimodal Retrieval</text><text x="622" y="192">LangGraph</text><text x="622" y="218">Tools · MCP</text><text x="622" y="244">Multi-Agent Workflows</text><text x="894" y="192">FastAPI · PostgreSQL</text><text x="894" y="218">Redis · Docker</text><text x="894" y="244">Evaluation · Observability</text></g><g fill="none" stroke="url(#v)" stroke-width="2" filter="url(#s)"><path d="M85 276h175M357 276h175M629 276h175M901 276h190"/></g><text x="600" y="329" text-anchor="middle" fill="#64748b" font-size="12">I move from fundamentals → intelligent behavior → reliable systems → deployable software.</text></g></svg>